# 3ds Max Wavefront OBJ Exporter v0.97b - (c)2007 guruware
# File Created: 02.10.2019 11:12:41

mtllib k131.mtl

#
# object f2_6
#

v  0.7342 1.1088 -0.6303
v  0.5623 0.9334 -1.8220
v  -0.5825 0.9334 -1.8220
v  -0.7544 1.1088 -0.6303
v  -0.7504 0.9522 -0.6303
v  -0.7530 0.9541 0.9913
v  -0.7530 0.9541 1.4516
v  -0.7168 0.9542 1.7934
v  -0.7168 1.1089 1.7934
v  -0.7067 1.7996 1.7306
v  -0.6700 1.7552 0.5713
v  -0.7544 0.9540 0.5713
v  -0.7530 0.7499 0.5713
v  -0.7530 0.3883 0.5713
v  -0.7507 0.3883 -0.6303
v  -0.7530 0.7499 -0.6303
v  0.6463 1.7568 0.5713
v  0.6866 1.7996 1.7306
v  0.6967 1.1089 1.7934
v  0.6967 0.9542 1.7934
v  0.7328 0.9541 1.4516
v  0.7328 0.9541 0.9913
v  0.7342 0.9540 0.5713
v  0.7328 0.7499 0.5713
v  0.7328 0.3883 0.5713
v  0.7305 0.9524 -0.6303
v  0.7328 0.7499 -0.6303
v  0.7305 0.3883 -0.6303
v  -0.0101 1.7996 1.7306
v  -0.0101 1.7114 -0.2969
v  -0.6462 1.7209 -0.2810
v  0.6209 1.7210 -0.2882
v  -0.7168 1.1088 1.7934
v  -0.7152 0.7499 1.7934
v  -0.7152 0.5613 1.7933
v  0.6950 0.5613 1.7933
v  0.6950 0.7499 1.7934
v  0.6967 1.1088 1.7934
v  -0.8250 0.7971 0.9915
v  -0.8250 0.7971 1.4504
v  0.8049 0.7971 1.4504
v  0.8049 0.7971 0.9915
v  -0.7530 0.9541 -1.0503
v  -0.7530 0.9541 -1.5106
v  -0.7530 0.9276 -1.8147
v  -0.8250 0.7499 -1.5093
v  -0.8250 0.7499 -1.0505
v  0.7328 0.9541 -1.0503
v  0.7328 0.9541 -1.5106
v  0.7328 0.9276 -1.8147
v  0.7328 0.8518 -1.8594
v  -0.7530 0.8518 -1.8594
v  0.7328 0.7499 -1.8594
v  -0.7530 0.7499 -1.8594
v  0.7328 0.5172 -1.8381
v  -0.7530 0.5172 -1.8381
v  0.8049 0.7499 -1.0505
v  0.8049 0.7499 -1.5093
v  -0.7647 0.7375 1.7575
v  -0.7675 0.5613 1.7585
# 60 vertices

vn 0.8204 0.4738 -0.3201
vn 0.7198 0.6643 -0.2016
vn -0.7205 0.6635 -0.2016
vn -0.8278 0.4629 -0.3171
vn -0.9469 0.2817 -0.1547
vn -0.9586 0.2838 0.0215
vn -0.8650 0.1977 0.4612
vn -0.7009 0.0714 0.7097
vn -0.5735 0.6007 0.5571
vn -0.9932 0.1162 -0.0101
vn -0.9827 0.1663 -0.0811
vn -0.9771 0.0321 -0.2104
vn -0.9781 0.0122 -0.2079
vn -0.9602 0.0092 -0.2792
vn -0.9750 0.0355 0.2195
vn 0.9898 0.1411 -0.0196
vn 0.5677 0.6188 0.5430
vn 0.7043 0.1005 0.7028
vn 0.8894 0.2046 0.4088
vn 0.9528 0.3034 0.0127
vn 0.9806 0.1765 -0.0853
vn 0.9758 0.0423 -0.2144
vn 0.9758 0.0330 -0.2161
vn 0.9443 0.2887 -0.1577
vn 0.9754 0.0454 0.2156
vn 0.9575 0.0296 -0.2871
vn 0.0000 0.7309 0.6825
vn 0.0000 0.9991 -0.0434
vn -0.4561 0.7801 -0.4282
vn 0.4535 0.7818 -0.4279
vn -0.3966 0.0254 0.9176
vn -0.5379 -0.1380 0.8316
vn 0.8259 -0.1225 0.5503
vn 0.0000 0.0780 0.9970
vn -0.9445 0.3242 -0.0522
vn -0.9204 0.3722 0.1198
vn 0.9204 0.3722 0.1198
vn 0.9445 0.3242 -0.0522
vn -0.5813 0.8137 -0.0021
vn -0.3823 0.9234 -0.0352
vn -0.7591 0.5585 -0.3344
vn -0.9596 0.2743 -0.0628
vn -0.9669 0.2498 0.0515
vn 0.5813 0.8137 -0.0022
vn 0.3822 0.9234 -0.0353
vn 0.7593 0.5582 -0.3345
vn 0.6189 0.2012 -0.7593
vn -0.6189 0.2012 -0.7593
vn 0.6588 -0.1204 -0.7426
vn -0.6588 -0.1204 -0.7426
vn 0.7373 -0.5139 -0.4386
vn -0.7373 -0.5139 -0.4386
vn 0.9672 0.2489 0.0511
vn 0.9597 0.2737 -0.0630
vn -0.8396 0.0631 0.5396
vn -0.7712 0.0089 0.6365
# 56 vertex normals

vt 0.6441 0.8670 0.0000
vt 0.6850 0.7166 0.0000
vt 0.8988 0.7166 0.0000
vt 0.9397 0.8670 0.0000
vt 0.9505 0.8672 0.0000
vt 0.9243 0.7116 0.0000
vt 0.9747 0.8670 0.0000
vt 0.1993 0.1544 0.0000
vt 0.1003 0.1544 0.0000
vt 0.0348 0.1544 0.0000
vt 0.0348 0.1933 0.0000
vt 0.0445 0.3235 0.0000
vt 0.2896 0.3246 0.0000
vt 0.5526 0.1856 0.0000
vt 0.2896 0.1543 0.0000
vt 0.5526 0.1466 0.0000
vt 0.2896 0.1001 0.0000
vt 0.2896 0.0177 0.0000
vt 0.5526 0.0177 0.0000
vt 0.5526 0.1001 0.0000
vt 0.2896 0.3183 0.0000
vt 0.0395 0.3241 0.0000
vt 0.0348 0.1856 0.0000
vt 0.0348 0.1467 0.0000
vt 0.1003 0.1467 0.0000
vt 0.1993 0.1467 0.0000
vt 0.2896 0.1466 0.0000
vt 0.0437 0.6172 0.0000
vt 0.0440 0.4818 0.0000
vt 0.2891 0.4782 0.0000
vt 0.2909 0.6055 0.0000
vt 0.0435 0.4747 0.0000
vt 0.0439 0.3393 0.0000
vt 0.2921 0.3453 0.0000
vt 0.6658 0.9615 0.0000
vt 0.9414 0.9620 0.0000
vt 0.1865 0.9545 0.0000
vt 0.0391 0.9545 0.0000
vt 0.0354 0.8082 0.0000
vt 0.0354 0.7730 0.0000
vt 0.0358 0.7265 0.0000
vt 0.0358 0.6836 0.0000
vt 0.3385 0.6836 0.0000
vt 0.3385 0.7265 0.0000
vt 0.3388 0.7730 0.0000
vt 0.3388 0.8082 0.0000
vt 0.3338 0.9545 0.0000
vt 0.1992 0.1109 0.0000
vt 0.1005 0.1109 0.0000
vt 0.6383 0.1467 0.0000
vt 0.7373 0.1467 0.0000
vt 0.8027 0.1406 0.0000
vt 0.7371 0.1001 0.0000
vt 0.6384 0.1001 0.0000
vt 0.6203 0.4701 0.0000
vt 0.6203 0.4115 0.0000
vt 0.9686 0.4115 0.0000
vt 0.9686 0.4701 0.0000
vt 0.9686 0.5236 0.0000
vt 0.6203 0.5236 0.0000
vt 0.6203 0.3593 0.0000
vt 0.9686 0.3593 0.0000
vt 0.6248 0.6951 0.0000
vt 0.6248 0.6769 0.0000
vt 0.9606 0.6769 0.0000
vt 0.9606 0.6951 0.0000
vt 0.6248 0.6545 0.0000
vt 0.9606 0.6545 0.0000
vt 0.6248 0.5969 0.0000
vt 0.9606 0.5969 0.0000
vt 0.0251 0.7237 0.0000
vt 0.0245 0.6836 0.0000
# 72 texture coords

g f2_6
usemtl k131_001
s off
f 1/1/1 2/2/2 3/3/3 4/4/4 
f 4/5/4 3/6/3 5/7/5 
f 6/8/6 7/9/6 8/10/7 9/11/8 
f 6/8/6 9/11/8 10/12/9 11/13/10 
f 6/8/6 11/13/10 4/14/4 12/15/11 
f 12/15/11 4/14/4 5/16/5 13/17/12 
f 14/18/13 13/17/12 5/16/5 15/19/14 
f 5/16/5 16/20/15 15/19/14 
f 1/14/1 17/21/16 18/22/17 19/23/18 
f 1/14/1 19/23/18 20/24/19 21/25/20 
f 1/14/1 21/25/20 22/26/20 23/27/21 
f 1/14/1 23/27/21 24/17/22 25/18/23 
f 26/16/24 1/14/1 25/18/23 27/20/25 
f 25/18/23 28/19/26 27/20/25 
f 10/28/9 29/29/27 30/30/28 31/31/29 
f 29/32/27 18/33/17 32/34/30 30/30/28 
f 32/35/30 1/1/1 4/4/4 31/36/29 
f 29/37/27 10/38/9 33/39/8 8/40/7 
f 29/37/27 8/40/7 34/41/31 35/42/32 
f 29/37/27 35/42/32 36/43/33 37/44/34 
f 29/37/27 37/44/34 20/45/19 38/46/18 
f 29/37/27 38/46/18 18/47/17 
f 39/48/35 40/49/36 8/24/7 7/25/6 
f 39/48/35 7/25/6 6/26/6 12/27/11 
f 21/25/20 20/24/19 41/49/37 42/48/38 
f 21/25/20 42/48/38 23/27/21 22/26/20 
f 43/50/39 44/51/40 45/52/41 46/53/42 
f 43/50/39 46/53/42 47/54/43 5/16/5 
f 48/55/44 49/56/45 44/57/40 43/58/39 
f 48/55/44 43/58/39 5/59/5 26/60/24 
f 49/56/45 50/61/46 45/62/41 44/57/40 
f 50/63/46 51/64/47 52/65/48 45/66/41 
f 51/64/47 53/67/49 54/68/50 52/65/48 
f 53/67/49 55/69/51 56/70/52 54/68/50 
f 57/54/53 58/53/54 50/52/46 49/51/45 
f 57/54/53 49/51/45 48/50/44 26/16/24 
f 59/71/55 60/72/56 35/42/32 34/41/31 
# 33 polygons - 4 triangles

#
# object f225_5
#

v  0.7603 0.5513 1.8349
v  -0.7686 0.5513 1.8349
v  -0.7686 0.4041 1.8349
v  0.7603 0.4041 1.8349
v  0.8116 0.4041 1.7488
v  0.8116 0.5513 1.7488
v  -0.8199 0.5513 1.7489
v  -0.8199 0.4041 1.7489
v  -0.7686 0.4039 -1.9389
v  -0.7686 0.5511 -1.9389
v  0.7603 0.5511 -1.9389
v  0.7603 0.4039 -1.9389
v  0.8116 0.4039 -1.8528
v  0.8116 0.5511 -1.8528
v  -0.8199 0.5511 -1.8528
v  -0.8199 0.4039 -1.8528
# 16 vertices

vn 0.4941 0.0000 0.8694
vn -0.4941 -0.0000 0.8694
vn 0.8591 0.0000 0.5117
vn -0.8591 -0.0000 0.5117
vn -0.4941 0.0000 -0.8694
vn 0.4941 0.0000 -0.8694
vn 0.8591 0.0000 -0.5117
vn -0.8591 0.0000 -0.5117
# 8 vertex normals

vt 0.9580 0.3520 0.0000
vt 0.6255 0.3520 0.0000
vt 0.6255 0.3181 0.0000
vt 0.9580 0.3181 0.0000
vt 0.9576 0.3181 0.0000
vt 0.9576 0.3520 0.0000
vt 0.6259 0.3520 0.0000
vt 0.6259 0.3181 0.0000
vt 0.9578 0.5643 0.0000
vt 0.9578 0.5982 0.0000
vt 0.6253 0.5982 0.0000
vt 0.6253 0.5643 0.0000
vt 0.6258 0.5643 0.0000
vt 0.6258 0.5982 0.0000
vt 0.9574 0.5982 0.0000
vt 0.9574 0.5643 0.0000
# 16 texture coords

g f225_5
usemtl k131_001
s off
f 61/73/57 62/74/58 63/75/58 64/76/57 
f 61/73/57 64/76/57 65/77/59 66/78/59 
f 63/75/58 62/74/58 67/79/60 68/80/60 
f 69/81/61 70/82/61 71/83/62 72/84/62 
f 73/85/63 72/84/62 71/83/62 74/86/63 
f 75/87/64 70/82/61 69/81/61 76/88/64 
# 6 polygons

#
# object f289_5
#

v  0.0598 0.5370 1.8312
v  0.0598 0.5370 -1.9334
v  -0.0800 0.5370 -1.9334
v  -0.0800 0.5370 1.8312
v  0.6950 0.5613 1.7933
v  -0.7152 0.5613 1.7933
v  -0.7152 1.0030 1.6935
v  0.6950 1.0030 1.6935
v  -0.7530 0.5172 -1.8381
v  0.7328 0.5172 -1.8381
v  0.7328 0.8546 -1.7707
v  -0.7530 0.8546 -1.7707
v  0.5623 0.9334 -1.8220
v  0.7342 1.1088 -0.6303
v  0.7305 0.9524 -0.6303
v  0.6463 1.7568 0.5713
v  0.6209 1.7210 -0.2882
v  -0.6700 1.7552 0.5713
v  -0.6462 1.7209 -0.2810
v  -0.7544 1.1088 -0.6303
v  -0.8250 0.6660 0.8816
v  -0.7544 0.9540 0.5713
v  -0.7530 0.7499 0.5713
v  -0.8250 0.6734 1.5722
v  -0.7647 0.7375 1.7575
v  -0.7168 0.9542 1.7934
v  -0.8250 0.5613 1.6211
v  -0.7675 0.5613 1.7585
v  -0.8250 0.3883 0.7267
v  -0.7530 0.3883 0.5713
v  -0.8250 0.7971 0.9915
v  -0.8250 0.7971 1.4504
v  0.8049 0.6660 0.8816
v  0.7328 0.7499 0.5713
v  0.7342 0.9540 0.5713
v  0.8049 0.6734 1.5722
v  0.6967 0.9542 1.7934
v  0.6921 0.7375 1.7923
v  0.8049 0.5613 1.6211
v  0.8049 0.3883 0.7267
v  0.7328 0.3883 0.5713
v  0.8049 0.7971 1.4504
v  0.8049 0.7971 0.9915
v  -0.8250 0.6660 -0.9406
v  -0.7530 0.7499 -0.6303
v  -0.7504 0.9522 -0.6303
v  -0.8250 0.6734 -1.6312
v  -0.7530 0.8518 -1.8594
v  -0.7530 0.7499 -1.8594
v  -0.8250 0.5172 -1.6660
v  -0.8250 0.3883 -0.7857
v  -0.7507 0.3883 -0.6303
v  -0.7530 0.9276 -1.8147
v  -0.8250 0.7499 -1.0505
v  -0.8250 0.7499 -1.5093
v  0.8049 0.6660 -0.9406
v  0.7328 0.7499 -0.6303
v  0.8049 0.6734 -1.6312
v  0.7328 0.7499 -1.8594
v  0.7328 0.8518 -1.8594
v  0.8049 0.5172 -1.6660
v  0.8049 0.3883 -0.7857
v  0.7305 0.3883 -0.6303
v  0.7328 0.9276 -1.8147
v  0.8049 0.7499 -1.5093
v  0.8049 0.7499 -1.0505
v  -0.7152 0.7499 1.7934
# 67 vertices

vn 0.0000 1.0000 0.0000
vn 0.8259 -0.1225 0.5503
vn -0.5379 -0.1380 0.8316
vn -0.0000 -0.2204 -0.9754
vn -0.7373 -0.5139 -0.4386
vn 0.7373 -0.5139 -0.4386
vn 0.0000 -0.0024 1.0000
vn 0.7198 0.6643 -0.2016
vn 0.8204 0.4738 -0.3201
vn 0.9443 0.2887 -0.1577
vn 0.9898 0.1411 -0.0196
vn 0.4535 0.7818 -0.4279
vn -0.9932 0.1162 -0.0101
vn -0.4561 0.7801 -0.4282
vn -0.8278 0.4629 -0.3171
vn -0.9804 0.0697 -0.1841
vn -0.9827 0.1663 -0.0811
vn -0.9771 0.0321 -0.2104
vn -0.9559 0.1639 0.2439
vn -0.8396 0.0631 0.5396
vn -0.8650 0.1977 0.4612
vn -0.9418 0.0678 0.3294
vn -0.7712 0.0089 0.6365
vn -0.9487 0.0553 -0.3114
vn -0.9781 0.0122 -0.2079
vn -0.9445 0.3242 -0.0522
vn -0.9204 0.3722 0.1198
vn 0.9804 0.0697 -0.1841
vn 0.9758 0.0423 -0.2144
vn 0.9806 0.1765 -0.0853
vn 0.9239 0.1218 0.3628
vn 0.8894 0.2046 0.4088
vn 0.8802 0.0581 0.4711
vn 0.8744 0.0977 0.4752
vn 0.9487 0.0553 -0.3114
vn 0.9758 0.0330 -0.2161
vn 0.9204 0.3722 0.1198
vn 0.9445 0.3242 -0.0522
vn -0.9804 0.0877 0.1762
vn -0.9750 0.0355 0.2195
vn -0.9469 0.2817 -0.1547
vn -0.9688 0.0946 -0.2291
vn -0.6189 0.2012 -0.7593
vn -0.6588 -0.1204 -0.7426
vn -0.9019 -0.0743 -0.4256
vn -0.9470 0.0525 0.3171
vn -0.9602 0.0092 -0.2792
vn -0.7591 0.5585 -0.3344
vn -0.9669 0.2498 0.0515
vn -0.9596 0.2743 -0.0628
vn 0.9805 0.0870 0.1761
vn 0.9754 0.0454 0.2156
vn 0.9688 0.0946 -0.2291
vn 0.6588 -0.1204 -0.7426
vn 0.6189 0.2012 -0.7593
vn 0.9019 -0.0743 -0.4256
vn 0.9470 0.0525 0.3171
vn 0.9575 0.0296 -0.2871
vn 0.7593 0.5582 -0.3345
vn 0.9597 0.2737 -0.0630
vn 0.9672 0.2489 0.0511
vn -0.3966 0.0254 0.9176
# 62 vertex normals

vt 0.6426 0.2738 0.0000
vt 0.9786 0.2738 0.0000
vt 0.9786 0.2864 0.0000
vt 0.6426 0.2864 0.0000
vt 0.7121 0.2303 0.0000
vt 0.8726 0.2303 0.0000
vt 0.8726 0.2848 0.0000
vt 0.7121 0.2848 0.0000
vt 0.6992 0.2333 0.0000
vt 0.9016 0.2333 0.0000
vt 0.9016 0.2820 0.0000
vt 0.6992 0.2820 0.0000
vt 0.9214 0.7160 0.0000
vt 0.9505 0.8672 0.0000
vt 0.9747 0.8670 0.0000
vt 0.2896 0.3183 0.0000
vt 0.5526 0.1856 0.0000
vt 0.4948 0.3067 0.0000
vt 0.2896 0.3246 0.0000
vt 0.4929 0.3147 0.0000
vt 0.2228 0.0810 0.0000
vt 0.2896 0.1466 0.0000
vt 0.2896 0.1001 0.0000
vt 0.0743 0.0827 0.0000
vt 0.0345 0.0973 0.0000
vt 0.0348 0.1467 0.0000
vt 0.0638 0.0571 0.0000
vt 0.0343 0.0571 0.0000
vt 0.2562 0.0177 0.0000
vt 0.2896 0.0177 0.0000
vt 0.1992 0.1109 0.0000
vt 0.1005 0.1109 0.0000
vt 0.6147 0.0810 0.0000
vt 0.5526 0.1001 0.0000
vt 0.5526 0.1466 0.0000
vt 0.7633 0.0827 0.0000
vt 0.8124 0.1234 0.0000
vt 0.8124 0.1001 0.0000
vt 0.7708 0.0471 0.0000
vt 0.7934 0.0471 0.0000
vt 0.5814 0.0177 0.0000
vt 0.5526 0.0177 0.0000
vt 0.8027 0.1406 0.0000
vt 0.6384 0.1001 0.0000
vt 0.7371 0.1001 0.0000
vt 0.0251 0.7237 0.0000
vt 0.0358 0.7265 0.0000
vt 0.0273 0.7730 0.0000
# 48 texture coords

g f289_5
usemtl k131_001
s off
f 77/89/65 78/90/65 79/91/65 80/92/65 
f 81/93/66 82/94/67 83/95/68 84/96/68 
f 85/97/69 86/98/70 87/99/71 88/100/71 
f 89/101/72 90/102/73 91/103/74 
f 92/104/75 90/105/73 93/106/76 
f 94/107/77 95/108/78 96/105/79 
f 97/109/80 98/110/81 99/111/82 
f 100/112/83 101/113/84 102/114/85 
f 101/113/84 100/112/83 103/115/86 
f 103/115/86 104/116/87 101/113/84 
f 105/117/88 99/111/82 106/118/89 
f 99/111/82 105/117/88 97/109/80 
f 98/110/81 97/109/80 107/119/90 
f 100/112/83 102/114/85 108/120/91 
f 109/109/92 110/111/93 111/110/94 
f 112/112/95 113/114/96 114/113/97 
f 114/113/97 115/115/98 112/112/95 
f 115/115/98 114/113/97 81/116/66 
f 116/117/99 117/118/100 110/111/93 
f 110/111/93 109/109/92 116/117/99 
f 113/114/96 112/112/95 118/120/101 
f 111/110/94 119/119/102 109/109/92 
f 120/121/103 121/122/104 122/123/105 
f 123/124/106 124/125/107 125/126/108 
f 125/126/108 126/127/109 123/124/106 
f 126/127/109 125/126/108 85/128/69 
f 127/129/110 128/130/111 121/122/104 
f 121/122/104 120/121/103 127/129/110 
f 129/131/112 124/125/107 123/124/106 
f 122/123/105 130/132/113 120/121/103 
f 123/124/106 131/133/114 129/131/112 
f 132/121/115 91/123/74 133/122/116 
f 134/124/117 135/126/118 136/125/119 
f 135/126/118 134/124/117 137/127/120 
f 137/127/120 86/128/70 135/126/118 
f 138/129/121 133/122/116 139/130/122 
f 133/122/116 138/129/121 132/121/115 
f 140/131/123 141/133/124 134/124/117 
f 91/123/74 132/121/115 142/132/125 
f 134/124/117 136/125/119 140/131/123 
f 101/134/84 143/135/126 102/136/85 
# 3 polygons - 38 triangles

#
# object f293_5
#

v  0.0598 0.4162 1.8187
v  0.0598 0.4162 -1.9203
v  0.0598 0.5370 -1.9203
v  0.0598 0.5370 1.8187
# 4 vertices

vn 0.8321 0.0001 0.5547
vn 0.8321 -0.0002 -0.5547
vn 0.7368 0.4645 -0.4912
vn 0.4912 0.4647 0.7367
# 4 vertex normals

vt 0.9786 0.2743 0.0000
vt 0.6426 0.2743 0.0000
vt 0.6426 0.2858 0.0000
vt 0.9786 0.2858 0.0000
# 4 texture coords

g f293_5
usemtl k131_001
s off
f 144/137/127 145/138/128 146/139/129 147/140/130 
# 1 polygons

#
# object f283_5
#

v  -0.1188 0.8094 1.6496
v  -0.1188 0.8094 -1.7887
v  -0.1188 0.3078 -1.4927
v  -0.1188 0.3078 1.3822
# 4 vertices

vn -0.9709 -0.1127 0.2115
vn -0.9501 -0.1586 -0.2687
vn -0.9710 -0.1216 -0.2059
vn -0.8353 -0.2586 0.4851
# 4 vertex normals

vt 0.9902 0.2885 0.0000
vt 0.6307 0.2885 0.0000
vt 0.6616 0.2261 0.0000
vt 0.9622 0.2261 0.0000
# 4 texture coords

g f283_5
usemtl k131_001
s off
f 148/141/131 149/142/132 150/143/133 151/144/134 
# 1 polygons

#
# object f297_5
#

v  -0.0800 0.4162 -1.9203
v  -0.0800 0.4162 1.8187
v  -0.0800 0.5370 1.8187
v  -0.0800 0.5370 -1.9203
v  -0.7507 0.3883 -0.6303
v  -0.7504 0.9522 -0.6303
v  -0.0101 0.9477 -0.6303
v  0.7305 0.9524 -0.6303
v  0.7305 0.3883 -0.6303
# 9 vertices

vn -0.9701 -0.0001 -0.2425
vn -0.7071 0.0001 0.7071
vn -0.8751 0.2070 0.4375
vn -0.7368 0.4645 -0.4912
vn -0.9602 0.0092 -0.2792
vn -0.9469 0.2817 -0.1547
vn -0.0000 0.0000 -1.0000
vn 0.9443 0.2887 -0.1577
vn 0.9575 0.0296 -0.2871
# 9 vertex normals

vt 0.6426 0.2743 0.0000
vt 0.9786 0.2743 0.0000
vt 0.9786 0.2858 0.0000
vt 0.6426 0.2858 0.0000
vt 0.7290 0.2303 0.0000
vt 0.7290 0.2822 0.0000
vt 0.7932 0.2822 0.0000
vt 0.8574 0.2822 0.0000
vt 0.8574 0.2303 0.0000
# 9 texture coords

g f297_5
usemtl k131_001
s off
f 152/145/135 153/146/136 154/147/137 155/148/138 
f 156/149/139 157/150/140 158/151/141 159/152/142 
f 156/149/139 159/152/142 160/153/143 
# 2 polygons - 1 triangles

#
# object f309_5
#

v  0.5804 0.3799 -1.3155
v  -0.6006 0.3799 -1.3155
v  -0.6006 0.3799 -1.2314
v  0.5804 0.3799 -1.2314
# 4 vertices

vn 0.0000 1.0000 0.0000
# 1 vertex normals

vt 0.9542 0.2349 0.0000
vt 0.6556 0.2349 0.0000
vt 0.6556 0.2554 0.0000
vt 0.9542 0.2554 0.0000
# 4 texture coords

g f309_5
usemtl k131_001
s off
f 161/154/144 162/155/144 163/156/144 164/157/144 
# 1 polygons

#
# object f319_6
#

v  0.7238 0.3883 0.6016
v  0.7238 0.9477 0.6016
v  -0.7439 0.9477 0.6016
v  -0.7439 0.3883 0.6016
# 4 vertices

vn 0.0000 0.0000 1.0000
# 1 vertex normals

vt 0.8574 0.2303 0.0000
vt 0.8574 0.2822 0.0000
vt 0.7290 0.2822 0.0000
vt 0.7290 0.2303 0.0000
# 4 texture coords

g f319_6
usemtl k131_001
s off
f 165/158/145 166/159/145 167/160/145 168/161/145 
# 1 polygons

#
# object f303_5
#

v  0.5804 0.3499 1.2357
v  -0.6006 0.3499 1.2357
v  -0.6006 0.4326 1.2357
v  0.5804 0.4326 1.2357
v  0.5804 0.3965 1.1853
v  -0.6006 0.3965 1.1853
v  -0.6006 0.3965 1.2694
v  0.5804 0.3965 1.2694
v  -0.6006 0.3499 -1.2669
v  0.5804 0.3499 -1.2669
v  0.5804 0.4326 -1.2669
v  -0.6006 0.4326 -1.2669
# 12 vertices

vn -0.0000 -0.0000 -1.0000
vn 0.0000 1.0000 0.0000
vn 0.0000 0.0000 1.0000
# 3 vertex normals

vt 0.9542 0.2348 0.0000
vt 0.6557 0.2348 0.0000
vt 0.6556 0.2348 0.0000
vt 0.6556 0.2553 0.0000
vt 0.9542 0.2553 0.0000
vt 0.6557 0.2554 0.0000
vt 0.9542 0.2554 0.0000
vt 0.6556 0.2554 0.0000
# 8 texture coords

g f303_5
usemtl k131_001
s off
f 169/162/146 170/163/146 171/164/146 172/162/146 
f 173/162/147 174/164/147 175/165/147 176/166/147 
f 177/167/148 178/168/148 179/168/148 180/169/148 
# 3 polygons

#
# object p717_17
#

v  -0.8550 0.7037 -1.2727
v  -0.8550 0.6566 -1.4486
v  -0.8550 0.5278 -1.5774
v  -0.8550 0.3519 -1.6245
v  -0.8550 0.1759 -1.5774
v  -0.8550 0.0471 -1.4486
v  -0.8550 0.0000 -1.2727
v  -0.8550 0.0471 -1.0967
v  -0.8550 0.1759 -0.9680
v  -0.8550 0.3519 -0.9208
v  -0.8550 0.5278 -0.9680
v  -0.8550 0.6566 -1.0967
v  -0.6286 0.0000 -1.2727
v  -0.6286 0.7037 -1.2727
v  -0.6286 0.3556 -1.6190
v  -0.8550 0.3556 -1.6190
v  -0.6286 0.3519 -0.9208
# 17 vertices

vn -0.7071 0.0000 -0.7071
vn -1.0000 0.0000 -0.0000
vn -0.7071 0.7071 0.0038
vn 0.2426 -0.9372 -0.2508
vn 0.2435 0.9409 -0.2353
vn 0.2429 0.2511 -0.9370
vn 0.2432 0.2350 0.9411
# 7 vertex normals

vt 0.4927 0.9973 0.0000
vt 0.4274 0.9797 0.0000
vt 0.3797 0.9316 0.0000
vt 0.3622 0.8659 0.0000
vt 0.3797 0.8003 0.0000
vt 0.4274 0.7522 0.0000
vt 0.4927 0.7346 0.0000
vt 0.5579 0.7522 0.0000
vt 0.6057 0.8003 0.0000
vt 0.6232 0.8659 0.0000
vt 0.6057 0.9316 0.0000
vt 0.5579 0.9797 0.0000
vt 0.6111 0.7277 0.0000
vt 0.6111 0.6388 0.0000
vt 0.3621 0.6388 0.0000
vt 0.3621 0.7277 0.0000
vt 0.3622 0.7277 0.0000
vt 0.3622 0.6388 0.0000
vt 0.6116 0.6388 0.0000
vt 0.6116 0.7277 0.0000
# 20 texture coords

g p717_17
usemtl k131_001
s off
f 181/170/149 182/171/150 183/172/150 184/173/151 
f 181/170/149 184/173/151 185/174/150 186/175/150 
f 181/170/149 186/175/150 187/176/149 188/177/150 
f 181/170/149 188/177/150 189/178/150 190/179/151 
f 181/170/149 190/179/151 191/180/150 192/181/150 
f 193/182/152 187/183/149 181/184/149 194/185/153 
f 195/186/154 196/187/151 190/188/151 197/189/155 
# 7 polygons

#
# object p717_23
#

v  -0.8550 0.7037 1.2273
v  -0.8550 0.6566 1.0514
v  -0.8550 0.5278 0.9226
v  -0.8550 0.3519 0.8755
v  -0.8550 0.1759 0.9226
v  -0.8550 0.0471 1.0514
v  -0.8550 0.0000 1.2273
v  -0.8550 0.0471 1.4033
v  -0.8550 0.1759 1.5320
v  -0.8550 0.3519 1.5792
v  -0.8550 0.5278 1.5320
v  -0.8550 0.6566 1.4033
v  -0.6286 0.0000 1.2273
v  -0.6286 0.7037 1.2273
v  -0.6286 0.3556 0.8810
v  -0.8550 0.3556 0.8810
v  -0.6286 0.3519 1.5792
# 17 vertices

vn -0.7071 0.0000 -0.7071
vn -1.0000 0.0000 -0.0000
vn -0.7071 0.7071 0.0038
vn 0.4473 -0.8640 -0.2312
vn 0.4488 0.8669 -0.2168
vn 0.4477 0.2314 -0.8637
vn 0.4483 0.2166 0.8672
# 7 vertex normals

vt 0.4927 0.9973 0.0000
vt 0.4274 0.9797 0.0000
vt 0.3797 0.9316 0.0000
vt 0.3622 0.8659 0.0000
vt 0.3797 0.8003 0.0000
vt 0.4274 0.7522 0.0000
vt 0.4927 0.7346 0.0000
vt 0.5579 0.7522 0.0000
vt 0.6057 0.8003 0.0000
vt 0.6232 0.8659 0.0000
vt 0.6057 0.9316 0.0000
vt 0.5579 0.9797 0.0000
vt 0.6111 0.7277 0.0000
vt 0.6111 0.6388 0.0000
vt 0.3621 0.6388 0.0000
vt 0.3621 0.7277 0.0000
vt 0.3622 0.7277 0.0000
vt 0.3622 0.6388 0.0000
vt 0.6116 0.6388 0.0000
vt 0.6116 0.7277 0.0000
# 20 texture coords

g p717_23
usemtl k131_001
s off
f 198/190/156 199/191/157 200/192/157 201/193/158 
f 198/190/156 201/193/158 202/194/157 203/195/157 
f 198/190/156 203/195/157 204/196/156 205/197/157 
f 198/190/156 205/197/157 206/198/157 207/199/158 
f 198/190/156 207/199/158 208/200/157 209/201/157 
f 210/202/159 204/203/156 198/204/156 211/205/160 
f 212/206/161 213/207/158 207/208/158 214/209/162 
# 7 polygons

#
# object p717_24
#

v  0.8373 0.6566 1.4033
v  0.8373 0.5278 1.5320
v  0.8373 0.3519 1.5792
v  0.8373 0.1759 1.5320
v  0.8373 0.0471 1.4033
v  0.8373 0.0000 1.2273
v  0.8373 0.0471 1.0514
v  0.8373 0.1759 0.9226
v  0.8373 0.3519 0.8755
v  0.8373 0.5278 0.9226
v  0.8373 0.6566 1.0514
v  0.8373 0.7037 1.2273
v  0.6114 0.7037 1.2273
v  0.6114 0.0000 1.2273
v  0.6114 0.3519 1.5792
v  0.8373 0.3556 0.8810
v  0.6114 0.3556 0.8810
# 17 vertices

vn 1.0000 0.0000 -0.0000
vn 0.7071 0.7071 0.0038
vn 0.7071 0.0000 -0.7071
vn -0.4488 0.8669 -0.2168
vn -0.4473 -0.8640 -0.2312
vn -0.4483 0.2166 0.8672
vn -0.4477 0.2314 -0.8637
# 7 vertex normals

vt 0.5579 0.9797 0.0000
vt 0.6057 0.9316 0.0000
vt 0.6232 0.8659 0.0000
vt 0.6057 0.8003 0.0000
vt 0.5579 0.7522 0.0000
vt 0.4927 0.7346 0.0000
vt 0.4274 0.7522 0.0000
vt 0.3797 0.8003 0.0000
vt 0.3622 0.8659 0.0000
vt 0.3797 0.9316 0.0000
vt 0.4274 0.9797 0.0000
vt 0.4927 0.9973 0.0000
vt 0.3621 0.7277 0.0000
vt 0.3621 0.6388 0.0000
vt 0.6111 0.6388 0.0000
vt 0.6111 0.7277 0.0000
vt 0.6116 0.7277 0.0000
vt 0.6116 0.6388 0.0000
vt 0.3622 0.6388 0.0000
vt 0.3622 0.7277 0.0000
# 20 texture coords

g p717_24
usemtl k131_001
s off
f 215/210/163 216/211/163 217/212/164 218/213/163 
f 215/210/163 218/213/163 219/214/163 220/215/165 
f 215/210/163 220/215/165 221/216/163 222/217/163 
f 215/210/163 222/217/163 223/218/164 224/219/163 
f 215/210/163 224/219/163 225/220/163 226/221/165 
f 227/222/166 226/223/165 220/224/165 228/225/167 
f 229/226/168 217/227/164 230/228/164 231/229/169 
# 7 polygons

#
# object p2143
#

v  0.8373 0.6566 -1.0967
v  0.8373 0.5278 -0.9680
v  0.8373 0.3519 -0.9208
v  0.8373 0.1759 -0.9680
v  0.8373 0.0471 -1.0967
v  0.8373 0.0000 -1.2727
v  0.8373 0.0471 -1.4486
v  0.8373 0.1759 -1.5774
v  0.8373 0.3519 -1.6245
v  0.8373 0.5278 -1.5774
v  0.8373 0.6566 -1.4486
v  0.8373 0.7037 -1.2727
v  0.6114 0.7037 -1.2727
v  0.6114 0.0000 -1.2727
v  0.6114 0.3519 -0.9208
v  0.8373 0.3556 -1.6190
v  0.6114 0.3556 -1.6190
# 17 vertices

vn 1.0000 0.0000 -0.0000
vn 0.7071 0.7071 0.0038
vn 0.7071 0.0000 -0.7071
vn -0.2435 0.9409 -0.2353
vn -0.2426 -0.9372 -0.2508
vn -0.2432 0.2350 0.9411
vn -0.2429 0.2511 -0.9370
# 7 vertex normals

vt 0.5579 0.9797 0.0000
vt 0.6057 0.9316 0.0000
vt 0.6232 0.8659 0.0000
vt 0.6057 0.8003 0.0000
vt 0.5579 0.7522 0.0000
vt 0.4927 0.7346 0.0000
vt 0.4274 0.7522 0.0000
vt 0.3797 0.8003 0.0000
vt 0.3622 0.8659 0.0000
vt 0.3797 0.9316 0.0000
vt 0.4274 0.9797 0.0000
vt 0.4927 0.9973 0.0000
vt 0.3621 0.7277 0.0000
vt 0.3621 0.6388 0.0000
vt 0.6111 0.6388 0.0000
vt 0.6111 0.7277 0.0000
vt 0.6116 0.7277 0.0000
vt 0.6116 0.6388 0.0000
vt 0.3622 0.6388 0.0000
vt 0.3622 0.7277 0.0000
# 20 texture coords

g p2143
usemtl k131_001
s off
f 232/230/170 233/231/170 234/232/171 235/233/170 
f 232/230/170 235/233/170 236/234/170 237/235/172 
f 232/230/170 237/235/172 238/236/170 239/237/170 
f 232/230/170 239/237/170 240/238/171 241/239/170 
f 232/230/170 241/239/170 242/240/170 243/241/172 
f 244/242/173 243/243/172 237/244/172 245/245/174 
f 246/246/175 234/247/171 247/248/171 248/249/176 
# 7 polygons

